<svg width="22" height="15" viewBox="0 0 22 15" fill="none" xmlns="http://www.w3.org/2000/svg">
<path fill-rule="evenodd" clip-rule="evenodd" d="M17.9739 1.96514C18.6928 1.96514 19.3598 2.14887 19.9749 2.51634C20.5901 2.88381 21.0813 3.37509 21.4488 3.9902C21.8163 4.6053 22 5.27233 22 5.99129V14.9782H19.9869V11.9826H2.01307V14.9782H0V0H2.01307V8.98693H10.0174V1.96514H17.9739ZM5.99129 7.95643C5.46405 7.95643 4.96877 7.82063 4.50545 7.54902C4.04212 7.27741 3.67466 6.90995 3.40305 6.44662C3.13144 5.98329 2.99564 5.48802 2.99564 4.96078C2.99564 4.43355 3.13144 3.93827 3.40305 3.47495C3.67466 3.01162 4.04212 2.64416 4.50545 2.37255C4.96877 2.10094 5.46405 1.96514 5.99129 1.96514C6.51852 1.96514 7.0138 2.10094 7.47712 2.37255C7.94045 2.64416 8.30791 3.01162 8.57952 3.47495C8.85113 3.93827 8.98693 4.43355 8.98693 4.96078C8.98693 5.48802 8.85113 5.98329 8.57952 6.44662C8.30791 6.90995 7.94045 7.27741 7.47712 7.54902C7.0138 7.82063 6.51852 7.95643 5.99129 7.95643Z" fill="white"/>
</svg>
