<svg width="32" height="32" viewBox="0 0 32 32" fill="none" xmlns="http://www.w3.org/2000/svg">
<path d="M16 32C24.8366 32 32 24.8366 32 16C32 7.16344 24.8366 0 16 0C7.16344 0 0 7.16344 0 16C0 24.8366 7.16344 32 16 32Z" fill="#F8F8F8"/>
<path fill-rule="evenodd" clip-rule="evenodd" d="M17.68 8.70001C18.7867 8.94001 19.7833 9.41334 20.67 10.12C21.5567 10.8267 22.2467 11.68 22.74 12.68C23.2467 13.72 23.5 14.8267 23.5 16C23.5 17.1734 23.2467 18.28 22.74 19.32C22.2467 20.32 21.5567 21.1733 20.67 21.88C19.7833 22.5867 18.7867 23.06 17.68 23.3V21.58C18.48 21.3533 19.1933 20.9667 19.82 20.42C20.4467 19.8733 20.9367 19.2167 21.29 18.45C21.6433 17.6833 21.82 16.8667 21.82 16C21.82 15.1333 21.6433 14.3167 21.29 13.55C20.9367 12.7833 20.4467 12.1267 19.82 11.58C19.1933 11.0333 18.48 10.6467 17.68 10.42V8.70001ZM19.76 16C19.76 16.7333 19.5733 17.3967 19.2 17.99C18.8267 18.5833 18.32 19.04 17.68 19.36V12.64C18.32 12.96 18.8267 13.4167 19.2 14.01C19.5733 14.6033 19.76 15.2667 19.76 16ZM8.5 13.5H11.82L16 9.32001V22.68L11.82 18.5H8.5V13.5Z" fill="black"/>
</svg>
