<svg width="108" height="36" viewBox="0 0 108 36" fill="none" xmlns="http://www.w3.org/2000/svg">
<path d="M26.3805 12.4246H13.86V16.14H22.7397C22.3011 21.3499 17.9665 23.5717 13.875 23.5717C8.64042 23.5717 4.07258 19.4531 4.07258 13.6803C4.07258 8.05677 8.4269 3.72587 13.8865 3.72587C18.0988 3.72587 20.5808 6.41106 20.5808 6.41106L23.1823 3.71717C23.1823 3.71717 19.8433 0 13.7536 0C5.99905 -0.000107408 0 6.54468 0 13.6139C0 20.541 5.6431 27.2955 13.9512 27.2955C21.2583 27.2955 26.6071 22.2899 26.6071 14.8878C26.6071 13.3262 26.3803 12.4236 26.3803 12.4236L26.3805 12.4246Z" fill="#4285F4"/>
<path fill-rule="evenodd" clip-rule="evenodd" d="M27.8145 18.4563C27.8145 13.772 31.4963 9.75544 36.6338 9.75544C40.8572 9.75544 45.4369 12.7479 45.4369 18.5585C45.4369 23.6281 41.4998 27.3012 36.6942 27.3012C31.3857 27.3012 27.8145 23.21 27.8145 18.4563ZM41.6055 18.5353C41.6055 15.244 39.2113 13.2014 36.6849 13.2014C33.846 13.2014 31.6646 15.4709 31.6646 18.5097C31.6646 21.6151 33.8734 23.8576 36.6733 23.8576C39.2216 23.8576 41.6055 21.7568 41.6055 18.5353Z" fill="#EA4335"/>
<path fill-rule="evenodd" clip-rule="evenodd" d="M46.9952 18.4563C46.9952 13.772 50.6771 9.75544 55.8146 9.75544C60.038 9.75544 64.6176 12.7479 64.6176 18.5585C64.6176 23.6281 60.6806 27.3012 55.875 27.3012C50.5664 27.3012 46.9952 23.21 46.9952 18.4563ZM60.7863 18.5353C60.7863 15.244 58.3921 13.2014 55.8657 13.2014C53.0268 13.2014 50.8453 15.4709 50.8453 18.5097C50.8453 21.6151 53.0542 23.8576 55.8541 23.8576C58.4023 23.8576 60.7863 21.7568 60.7863 18.5353Z" fill="#FBBC06"/>
<path fill-rule="evenodd" clip-rule="evenodd" d="M66.2059 18.5306C66.2059 13.8948 69.9126 9.76468 74.6282 9.76468V9.76489C76.6808 9.76489 78.2274 10.5595 79.3584 11.7783V10.2922H83.0366V26.0564C83.0366 32.25 79.4632 35.2031 74.7746 35.2031C70.4881 35.2031 68.0802 32.5656 66.8841 30.0365L70.2557 28.627C70.7229 29.7577 72.067 31.7502 74.7467 31.7502C77.5206 31.7502 79.3583 29.9377 79.3583 26.9109V25.181C78.3767 26.3202 77.0472 27.3128 74.5469 27.3128C70.5032 27.3128 66.2059 23.811 66.2059 18.5306ZM79.6555 18.5491C79.6555 15.1778 77.2815 13.2037 74.9696 13.2037H74.9694C72.4947 13.2037 70.0652 15.2136 70.0652 18.5817C70.0652 21.8231 72.4044 23.8644 74.9184 23.8644C77.2866 23.8644 79.6555 21.9759 79.6555 18.5491Z" fill="#4285F4"/>
<path fill-rule="evenodd" clip-rule="evenodd" d="M91.208 18.505C91.208 13.2828 94.9429 9.74373 99.3911 9.74373L99.3915 9.74427C102.899 9.74427 105.55 12.0836 106.687 14.8848L107.297 16.3153L95.5341 21.1963C96.2366 22.5045 97.3706 23.8551 99.8369 23.8551C102.033 23.8551 103.348 22.6615 104.135 21.4401L107.168 23.458C105.808 25.2774 103.53 27.308 99.8184 27.308C95.371 27.308 91.208 24.0308 91.208 18.505ZM102.791 14.9917C102.301 13.9699 101.147 13.1177 99.5443 13.1177C97.0046 13.1177 94.5963 15.7331 94.9349 18.2751L102.791 14.9917Z" fill="#EA4335"/>
<path d="M85.5999 26.7872H89.4638V0.928775H85.5999V26.7872Z" fill="#33A853"/>
</svg>
