<svg width="48" height="48" viewBox="0 0 48 48" fill="none" xmlns="http://www.w3.org/2000/svg">
<rect width="48" height="48" rx="24" fill="#F8F8F8"/>
<path fill-rule="evenodd" clip-rule="evenodd" d="M18.7874 29.2127C18.9927 29.3843 19.2084 29.5477 19.4344 29.7029C20.4918 30.4293 21.6458 30.8753 22.8964 31.0408H25.1584C26.4089 30.8753 27.5629 30.4293 28.6203 29.7029C29.6778 28.9765 30.5099 28.0708 31.1168 26.9858C31.7421 25.8456 32.0547 24.6318 32.0547 23.3445H30.1237C30.1237 24.4663 29.8295 25.4778 29.241 26.3789C28.6893 27.2432 27.9491 27.9237 27.0204 28.4202C26.0917 28.9167 25.094 29.165 24.0274 29.165C22.9607 29.165 21.9631 28.9167 21.0343 28.4202C20.7181 28.2511 20.4237 28.0607 20.1511 27.8489L18.7874 29.2127Z" fill="#EA4335"/>
<path fill-rule="evenodd" clip-rule="evenodd" d="M20.1511 27.8489L18.7873 29.2127C18.0316 28.5812 17.4151 27.8389 16.9379 26.9858C16.3126 25.8456 16 24.6318 16 23.3445H17.931C17.931 24.4663 18.2252 25.4778 18.8137 26.3789C19.1775 26.9489 19.6233 27.4389 20.1511 27.8489Z" fill="#F4B402"/>
<path fill-rule="evenodd" clip-rule="evenodd" d="M25.1582 31.0408V34.82H22.8962V31.0408H25.1582Z" fill="#33A853"/>
<path fill-rule="evenodd" clip-rule="evenodd" d="M24.0273 26.7927C23.4204 26.7927 22.8503 26.6364 22.317 26.3237C21.7837 26.0111 21.3607 25.5881 21.0481 25.0548C20.7354 24.5215 20.5791 23.9514 20.5791 23.3445V16.4482C20.5791 15.8413 20.7354 15.2712 21.0481 14.7379C21.3607 14.2046 21.7837 13.7816 22.317 13.469C22.8503 13.1563 23.4204 13 24.0273 13C24.6341 13 25.2042 13.1563 25.7376 13.469C26.2709 13.7816 26.6938 14.2046 27.0065 14.7379C27.3191 15.2712 27.4754 15.8413 27.4754 16.4482V23.3445C27.4754 23.9514 27.3191 24.5215 27.0065 25.0548C26.6938 25.5881 26.2709 26.0111 25.7376 26.3237C25.2042 26.6364 24.6341 26.7927 24.0273 26.7927Z" fill="#4285F4"/>
</svg>
