<svg width="15" height="18" viewBox="0 0 15 18" fill="none" xmlns="http://www.w3.org/2000/svg">
<path fill-rule="evenodd" clip-rule="evenodd" d="M15 14.1L13.24 12.34V7.5C13.24 6.62 13.05 5.78667 12.67 5C12.29 4.21333 11.7633 3.55 11.09 3.01C10.4167 2.47 9.66 2.10667 8.82 1.92V1.32C8.82 0.946665 8.69333 0.633335 8.44 0.38C8.18666 0.126665 7.87334 0 7.5 0C7.12666 0 6.81333 0.126665 6.56 0.38C6.30667 0.633335 6.18 0.946665 6.18 1.32V1.92C5.34 2.10667 4.58334 2.47 3.91 3.01C3.23666 3.55 2.71 4.21333 2.33 5C1.95 5.78667 1.76 6.62 1.76 7.5V12.34L0 14.1V15H15V14.1ZM9.28 16H6C6 16.4533 6.16 16.8467 6.48 17.18C6.8 17.5133 7.18666 17.68 7.64 17.68C8.09334 17.68 8.48 17.5133 8.8 17.18C9.12 16.8467 9.28 16.4533 9.28 16Z" fill="#4E4E4E" fill-opacity="0.5"/>
</svg>
