<svg width="36" height="36" viewBox="0 0 36 36" fill="none" xmlns="http://www.w3.org/2000/svg">
<rect width="36" height="36" rx="18" fill="#4285F4"/>
<path fill-rule="evenodd" clip-rule="evenodd" d="M16.44 20.18C17.12 20.18 17.7467 20.01 18.32 19.67C18.8933 19.33 19.3467 18.8733 19.68 18.3C20.0133 17.7267 20.18 17.1 20.18 16.42C20.18 15.74 20.0133 15.1133 19.68 14.54C19.3467 13.9667 18.8933 13.5133 18.32 13.18C17.7467 12.8467 17.12 12.68 16.44 12.68C15.76 12.68 15.1333 12.8467 14.56 13.18C13.9867 13.5133 13.53 13.9667 13.19 14.54C12.85 15.1133 12.68 15.74 12.68 16.42C12.68 17.1 12.85 17.7267 13.19 18.3C13.53 18.8733 13.9867 19.33 14.56 19.67C15.1333 20.01 15.76 20.18 16.44 20.18ZM21.44 20.18L25.58 24.32L24.32 25.58L20.18 21.42V20.76L19.94 20.54C19.4733 20.9533 18.9367 21.27 18.33 21.49C17.7233 21.71 17.0933 21.82 16.44 21.82C15.4533 21.82 14.5433 21.58 13.71 21.1C12.8767 20.62 12.22 19.9733 11.74 19.16C11.2467 18.32 11 17.4067 11 16.42C11 15.4333 11.2433 14.5233 11.73 13.69C12.2167 12.8567 12.8767 12.2 13.71 11.72C14.5433 11.24 15.4533 11 16.44 11C17.4267 11 18.34 11.2467 19.18 11.74C19.9933 12.22 20.6367 12.8733 21.11 13.7C21.5833 14.5267 21.82 15.4333 21.82 16.42C21.82 17.0867 21.71 17.7233 21.49 18.33C21.27 18.9367 20.9533 19.4733 20.54 19.94L20.76 20.18H21.44Z" fill="white"/>
</svg>
