<svg width="14" height="16" viewBox="0 0 14 16" fill="none" xmlns="http://www.w3.org/2000/svg">
<path fill-rule="evenodd" clip-rule="evenodd" d="M11.5 10.76C11.884 10.76 12.244 10.859 12.58 11.057C12.916 11.255 13.183 11.522 13.381 11.858C13.579 12.194 13.678 12.554 13.678 12.938C13.678 13.322 13.579 13.685 13.381 14.027C13.183 14.369 12.916 14.642 12.58 14.846C12.244 15.05 11.884 15.152 11.5 15.152C11.116 15.152 10.756 15.05 10.42 14.846C10.084 14.642 9.817 14.369 9.619 14.027C9.421 13.685 9.322 13.322 9.322 12.938C9.322 12.698 9.334 12.536 9.358 12.452L4.048 9.35598C3.616 9.75198 3.1 9.94998 2.5 9.94998C2.104 9.94998 1.732 9.84798 1.384 9.64398C1.036 9.43997 0.760001 9.16398 0.556 8.81598C0.351999 8.46797 0.25 8.09598 0.25 7.69998C0.25 7.30397 0.351999 6.93198 0.556 6.58398C0.760001 6.23597 1.036 5.95998 1.384 5.75598C1.732 5.55197 2.104 5.44998 2.5 5.44998C3.1 5.44998 3.616 5.64797 4.048 6.04397L9.322 2.98398C9.274 2.74397 9.25 2.56998 9.25 2.46198C9.25 2.06597 9.352 1.69398 9.556 1.34598C9.76 0.997973 10.036 0.721976 10.384 0.517975C10.732 0.313974 11.104 0.211975 11.5 0.211975C11.896 0.211975 12.268 0.313974 12.616 0.517975C12.964 0.721976 13.24 0.997973 13.444 1.34598C13.648 1.69398 13.75 2.06597 13.75 2.46198C13.75 2.85798 13.648 3.22997 13.444 3.57798C13.24 3.92598 12.964 4.20197 12.616 4.40597C12.268 4.60998 11.896 4.71198 11.5 4.71198C10.948 4.71198 10.432 4.50198 9.952 4.08197L4.678 7.17798C4.726 7.39398 4.75 7.56197 4.75 7.68197C4.75 7.80198 4.726 7.98197 4.678 8.22198L10.024 11.318C10.456 10.946 10.948 10.76 11.5 10.76Z" fill="#212121"/>
</svg>
