<svg width="32" height="32" viewBox="0 0 32 32" fill="none" xmlns="http://www.w3.org/2000/svg">
<path d="M16 32C24.8366 32 32 24.8366 32 16C32 7.16344 24.8366 0 16 0C7.16344 0 0 7.16344 0 16C0 24.8366 7.16344 32 16 32Z" fill="#F8F8F8"/>
<path fill-rule="evenodd" clip-rule="evenodd" d="M20.24 15.5H21.64C21.64 16.4333 21.4133 17.3133 20.96 18.14C20.52 18.9267 19.9167 19.5833 19.15 20.11C18.3833 20.6367 17.5467 20.96 16.64 21.08V23.82H15V21.08C14.0933 20.96 13.2567 20.6367 12.49 20.11C11.7233 19.5833 11.12 18.9267 10.68 18.14C10.2267 17.3133 10 16.4333 10 15.5H11.4C11.4 16.3133 11.6133 17.0467 12.04 17.7C12.44 18.3267 12.9767 18.82 13.65 19.18C14.3233 19.54 15.0467 19.72 15.82 19.72C16.5933 19.72 17.3167 19.54 17.99 19.18C18.6633 18.82 19.2 18.3267 19.6 17.7C20.0267 17.0467 20.24 16.3133 20.24 15.5ZM15.82 18C15.38 18 14.9667 17.8867 14.58 17.66C14.1933 17.4333 13.8867 17.1267 13.66 16.74C13.4333 16.3533 13.32 15.94 13.32 15.5V10.5C13.32 10.06 13.4333 9.64667 13.66 9.26C13.8867 8.87333 14.1933 8.56667 14.58 8.34C14.9667 8.11333 15.38 8 15.82 8C16.26 8 16.6733 8.11333 17.06 8.34C17.4467 8.56667 17.7533 8.87333 17.98 9.26C18.2067 9.64667 18.32 10.06 18.32 10.5V15.5C18.32 15.94 18.2067 16.3533 17.98 16.74C17.7533 17.1267 17.4467 17.4333 17.06 17.66C16.6733 17.8867 16.26 18 15.82 18Z" fill="black"/>
</svg>
