<svg display="none" xmlns="http://www.w3.org/2000/svg">
    <symbol id="logo" viewBox="0 0 108 36">
        <path d="M26.3805 12.4246H13.86V16.14H22.7397C22.3011 21.3499 17.9665 23.5717 13.875 23.5717C8.64042 23.5717 4.07258 19.4531 4.07258 13.6803C4.07258 8.05677 8.4269 3.72587 13.8865 3.72587C18.0988 3.72587 20.5808 6.41106 20.5808 6.41106L23.1823 3.71717C23.1823 3.71717 19.8433 0 13.7536 0C5.99905 -0.000107408 0 6.54468 0 13.6139C0 20.541 5.6431 27.2955 13.9512 27.2955C21.2583 27.2955 26.6071 22.2899 26.6071 14.8878C26.6071 13.3262 26.3803 12.4236 26.3803 12.4236L26.3805 12.4246Z" fill="#4285F4"/>
        <path fill-rule="evenodd" clip-rule="evenodd" d="M27.8145 18.4563C27.8145 13.772 31.4963 9.75544 36.6338 9.75544C40.8572 9.75544 45.4369 12.7479 45.4369 18.5585C45.4369 23.6281 41.4998 27.3012 36.6942 27.3012C31.3857 27.3012 27.8145 23.21 27.8145 18.4563ZM41.6055 18.5353C41.6055 15.244 39.2113 13.2014 36.6849 13.2014C33.846 13.2014 31.6646 15.4709 31.6646 18.5097C31.6646 21.6151 33.8734 23.8576 36.6733 23.8576C39.2216 23.8576 41.6055 21.7568 41.6055 18.5353Z" fill="#EA4335"/>
        <path fill-rule="evenodd" clip-rule="evenodd" d="M46.9952 18.4563C46.9952 13.772 50.6771 9.75544 55.8146 9.75544C60.038 9.75544 64.6176 12.7479 64.6176 18.5585C64.6176 23.6281 60.6806 27.3012 55.875 27.3012C50.5664 27.3012 46.9952 23.21 46.9952 18.4563ZM60.7863 18.5353C60.7863 15.244 58.3921 13.2014 55.8657 13.2014C53.0268 13.2014 50.8453 15.4709 50.8453 18.5097C50.8453 21.6151 53.0542 23.8576 55.8541 23.8576C58.4023 23.8576 60.7863 21.7568 60.7863 18.5353Z" fill="#FBBC06"/>
        <path fill-rule="evenodd" clip-rule="evenodd" d="M66.2059 18.5306C66.2059 13.8948 69.9126 9.76468 74.6282 9.76468V9.76489C76.6808 9.76489 78.2274 10.5595 79.3584 11.7783V10.2922H83.0366V26.0564C83.0366 32.25 79.4632 35.2031 74.7746 35.2031C70.4881 35.2031 68.0802 32.5656 66.8841 30.0365L70.2557 28.627C70.7229 29.7577 72.067 31.7502 74.7467 31.7502C77.5206 31.7502 79.3583 29.9377 79.3583 26.9109V25.181C78.3767 26.3202 77.0472 27.3128 74.5469 27.3128C70.5032 27.3128 66.2059 23.811 66.2059 18.5306ZM79.6555 18.5491C79.6555 15.1778 77.2815 13.2037 74.9696 13.2037H74.9694C72.4947 13.2037 70.0652 15.2136 70.0652 18.5817C70.0652 21.8231 72.4044 23.8644 74.9184 23.8644C77.2866 23.8644 79.6555 21.9759 79.6555 18.5491Z" fill="#4285F4"/>
        <path fill-rule="evenodd" clip-rule="evenodd" d="M91.208 18.505C91.208 13.2828 94.9429 9.74373 99.3911 9.74373L99.3915 9.74427C102.899 9.74427 105.55 12.0836 106.687 14.8848L107.297 16.3153L95.5341 21.1963C96.2366 22.5045 97.3706 23.8551 99.8369 23.8551C102.033 23.8551 103.348 22.6615 104.135 21.4401L107.168 23.458C105.808 25.2774 103.53 27.308 99.8184 27.308C95.371 27.308 91.208 24.0308 91.208 18.505ZM102.791 14.9917C102.301 13.9699 101.147 13.1177 99.5443 13.1177C97.0046 13.1177 94.5963 15.7331 94.9349 18.2751L102.791 14.9917Z" fill="#EA4335"/>
        <path d="M85.5999 26.7872H89.4638V0.928775H85.5999V26.7872Z" fill="#33A853"/>
    </symbol>
    
    <symbol id="avatar" viewBox="0 0 48 48">
        <rect width="48" height="48" rx="24" fill="#FBBC06"/>
        <path d="M24.5067 24C28.6479 23.9963 32.0025 20.6368 32 16.4956C31.9975 12.3543 28.639 8.99877 24.4978 9C20.3565 9.00123 17 12.3587 17 16.5C17.0037 20.6432 20.3635 24 24.5067 24Z" fill="white"/>
        <path d="M24.5 26C16.4392 26 12 28.7261 12 33.682C12 36.6998 17.375 39 24.5 39C31.625 39 37 36.7132 37 33.682C37 28.7227 32.5608 26 24.5 26Z" fill="white"/>
    </symbol>
    
    <symbol id="search-btn" viewBox="0 0 36 36">
        <rect width="36" height="36" rx="18" fill="#4285F4"/>
        <path fill-rule="evenodd" clip-rule="evenodd" d="M16.44 20.18C17.12 20.18 17.7467 20.01 18.32 19.67C18.8933 19.33 19.3467 18.8733 19.68 18.3C20.0133 17.7267 20.18 17.1 20.18 16.42C20.18 15.74 20.0133 15.1133 19.68 14.54C19.3467 13.9667 18.8933 13.5133 18.32 13.18C17.7467 12.8467 17.12 12.68 16.44 12.68C15.76 12.68 15.1333 12.8467 14.56 13.18C13.9867 13.5133 13.53 13.9667 13.19 14.54C12.85 15.1133 12.68 15.74 12.68 16.42C12.68 17.1 12.85 17.7267 13.19 18.3C13.53 18.8733 13.9867 19.33 14.56 19.67C15.1333 20.01 15.76 20.18 16.44 20.18ZM21.44 20.18L25.58 24.32L24.32 25.58L20.18 21.42V20.76L19.94 20.54C19.4733 20.9533 18.9367 21.27 18.33 21.49C17.7233 21.71 17.0933 21.82 16.44 21.82C15.4533 21.82 14.5433 21.58 13.71 21.1C12.8767 20.62 12.22 19.9733 11.74 19.16C11.2467 18.32 11 17.4067 11 16.42C11 15.4333 11.2433 14.5233 11.73 13.69C12.2167 12.8567 12.8767 12.2 13.71 11.72C14.5433 11.24 15.4533 11 16.44 11C17.4267 11 18.34 11.2467 19.18 11.74C19.9933 12.22 20.6367 12.8733 21.11 13.7C21.5833 14.5267 21.82 15.4333 21.82 16.42C21.82 17.0867 21.71 17.7233 21.49 18.33C21.27 18.9367 20.9533 19.4733 20.54 19.94L20.76 20.18H21.44Z" fill="white"/>
    </symbol>
    
    <symbol id="mic"  viewBox="0 0 48 48">
        <rect width="48" height="48" rx="24" fill="#F8F8F8"/>
        <path fill-rule="evenodd" clip-rule="evenodd" d="M18.7874 29.2127C18.9927 29.3843 19.2084 29.5477 19.4344 29.7029C20.4918 30.4293 21.6458 30.8753 22.8964 31.0408H25.1584C26.4089 30.8753 27.5629 30.4293 28.6203 29.7029C29.6778 28.9765 30.5099 28.0708 31.1168 26.9858C31.7421 25.8456 32.0547 24.6318 32.0547 23.3445H30.1237C30.1237 24.4663 29.8295 25.4778 29.241 26.3789C28.6893 27.2432 27.9491 27.9237 27.0204 28.4202C26.0917 28.9167 25.094 29.165 24.0274 29.165C22.9607 29.165 21.9631 28.9167 21.0343 28.4202C20.7181 28.2511 20.4237 28.0607 20.1511 27.8489L18.7874 29.2127Z" fill="#EA4335"/>
        <path fill-rule="evenodd" clip-rule="evenodd" d="M20.1511 27.8489L18.7873 29.2127C18.0316 28.5812 17.4151 27.8389 16.9379 26.9858C16.3126 25.8456 16 24.6318 16 23.3445H17.931C17.931 24.4663 18.2252 25.4778 18.8137 26.3789C19.1775 26.9489 19.6233 27.4389 20.1511 27.8489Z" fill="#F4B402"/>
        <path fill-rule="evenodd" clip-rule="evenodd" d="M25.1582 31.0408V34.82H22.8962V31.0408H25.1582Z" fill="#33A853"/>
        <path fill-rule="evenodd" clip-rule="evenodd" d="M24.0273 26.7927C23.4204 26.7927 22.8503 26.6364 22.317 26.3237C21.7837 26.0111 21.3607 25.5881 21.0481 25.0548C20.7354 24.5215 20.5791 23.9514 20.5791 23.3445V16.4482C20.5791 15.8413 20.7354 15.2712 21.0481 14.7379C21.3607 14.2046 21.7837 13.7816 22.317 13.469C22.8503 13.1563 23.4204 13 24.0273 13C24.6341 13 25.2042 13.1563 25.7376 13.469C26.2709 13.7816 26.6938 14.2046 27.0065 14.7379C27.3191 15.2712 27.4754 15.8413 27.4754 16.4482V23.3445C27.4754 23.9514 27.3191 24.5215 27.0065 25.0548C26.6938 25.5881 26.2709 26.0111 25.7376 26.3237C25.2042 26.6364 24.6341 26.7927 24.0273 26.7927Z" fill="#4285F4"/>
    </symbol>
    
    <symbol id="apps-material" viewBox="0 0 16 16">
        <path fill-rule="evenodd" clip-rule="evenodd" d="M11.976 16V11.976H16V16H11.976ZM11.976 10.012V5.98802H16V10.012H11.976ZM5.98802 4.02395V0H10.012V4.02395H5.98802ZM11.976 0H16V4.02395H11.976V0ZM5.98802 10.012V5.98802H10.012V10.012H5.98802ZM0 10.012V5.98802H4.02395V10.012H0ZM0 16V11.976H4.02395V16H0ZM5.98802 16V11.976H10.012V16H5.98802ZM0 4.02395V0H4.02395V4.02395H0Z" fill="#4E4E4E"/>
    </symbol>
    
    <symbol id="notify" viewBox="0 0 15 18">
        <path fill-rule="evenodd" clip-rule="evenodd" d="M15 14.1L13.24 12.34V7.5C13.24 6.62 13.05 5.78667 12.67 5C12.29 4.21333 11.7633 3.55 11.09 3.01C10.4167 2.47 9.66 2.10667 8.82 1.92V1.32C8.82 0.946665 8.69333 0.633335 8.44 0.38C8.18666 0.126665 7.87334 0 7.5 0C7.12666 0 6.81333 0.126665 6.56 0.38C6.30667 0.633335 6.18 0.946665 6.18 1.32V1.92C5.34 2.10667 4.58334 2.47 3.91 3.01C3.23666 3.55 2.71 4.21333 2.33 5C1.95 5.78667 1.76 6.62 1.76 7.5V12.34L0 14.1V15H15V14.1ZM9.28 16H6C6 16.4533 6.16 16.8467 6.48 17.18C6.8 17.5133 7.18666 17.68 7.64 17.68C8.09334 17.68 8.48 17.5133 8.8 17.18C9.12 16.8467 9.28 16.4533 9.28 16Z" fill="#4E4E4E" fill-opacity="0.5"/>
    </symbol>
    
    <symbol id="visit" viewBox="0 0 16 16">
        <path fill-rule="evenodd" clip-rule="evenodd" d="M12.428 11.75C12.932 11.21 13.322 10.592 13.598 9.89598C13.874 9.19997 14.012 8.46798 14.012 7.69998C14.012 6.88397 13.853 6.10398 13.535 5.35997C13.217 4.61597 12.773 3.96498 12.203 3.40698C11.633 2.84897 10.982 2.42598 10.25 2.13798V2.46198C10.25 2.86998 10.1 3.21797 9.79996 3.50598C9.49996 3.79398 9.14596 3.93797 8.73796 3.93797H7.26196V5.44998C7.26196 5.65398 7.18696 5.82797 7.03696 5.97198C6.88696 6.11598 6.70396 6.18798 6.48796 6.18798H5.01196V7.69998H9.51196C9.71596 7.69998 9.88996 7.77197 10.034 7.91598C10.178 8.05998 10.25 8.23397 10.25 8.43797V10.688H10.988C11.312 10.688 11.606 10.787 11.87 10.985C12.134 11.183 12.32 11.438 12.428 11.75ZM7.26196 13.64V12.2C6.85396 12.2 6.49996 12.05 6.19996 11.75C5.89996 11.45 5.74996 11.096 5.74996 10.688V9.94998L2.16796 6.36798C2.04796 6.82398 1.98796 7.26797 1.98796 7.69998C1.98796 8.69598 2.22796 9.63797 2.70796 10.526C3.16397 11.366 3.79396 12.065 4.59796 12.623C5.40197 13.181 6.28996 13.52 7.26196 13.64ZM7.99996 0.211975C9.36797 0.211975 10.634 0.553972 11.798 1.23798C12.926 1.88598 13.814 2.77397 14.462 3.90198C15.146 5.06598 15.488 6.33197 15.488 7.69998C15.488 9.06798 15.146 10.334 14.462 11.498C13.814 12.626 12.926 13.514 11.798 14.162C10.634 14.846 9.36797 15.188 7.99996 15.188C6.63196 15.188 5.36597 14.846 4.20196 14.162C3.07396 13.502 2.18597 12.608 1.53796 11.48C0.85396 10.316 0.511963 9.05598 0.511963 7.69998C0.511963 6.34397 0.85396 5.08398 1.53796 3.91998C2.19797 2.79197 3.09196 1.89798 4.21996 1.23798C5.38397 0.553972 6.64396 0.211975 7.99996 0.211975Z" fill="#212121"/>
    </symbol>
    
    <symbol id="save-icon" viewBox="0 0 12 15">
        <path fill-rule="evenodd" clip-rule="evenodd" d="M9.76196 12.2V2.46201H2.23796V12.2L5.99996 10.544L9.76196 12.2ZM9.76196 0.950012C10.17 0.950012 10.518 1.10001 10.806 1.40001C11.094 1.70001 11.238 2.05401 11.238 2.46201V14.45L5.99996 12.2L0.761963 14.45V2.46201C0.761963 2.05401 0.905961 1.70001 1.19396 1.40001C1.48196 1.10001 1.82996 0.950012 2.23796 0.950012H9.76196Z" fill="#212121"/>
    </symbol>
    
    <symbol id="share-icon" viewBox="0 0 14 16">
        <path fill-rule="evenodd" clip-rule="evenodd" d="M11.5 10.76C11.884 10.76 12.244 10.859 12.58 11.057C12.916 11.255 13.183 11.522 13.381 11.858C13.579 12.194 13.678 12.554 13.678 12.938C13.678 13.322 13.579 13.685 13.381 14.027C13.183 14.369 12.916 14.642 12.58 14.846C12.244 15.05 11.884 15.152 11.5 15.152C11.116 15.152 10.756 15.05 10.42 14.846C10.084 14.642 9.817 14.369 9.619 14.027C9.421 13.685 9.322 13.322 9.322 12.938C9.322 12.698 9.334 12.536 9.358 12.452L4.048 9.35598C3.616 9.75198 3.1 9.94998 2.5 9.94998C2.104 9.94998 1.732 9.84798 1.384 9.64398C1.036 9.43997 0.760001 9.16398 0.556 8.81598C0.351999 8.46797 0.25 8.09598 0.25 7.69998C0.25 7.30397 0.351999 6.93198 0.556 6.58398C0.760001 6.23597 1.036 5.95998 1.384 5.75598C1.732 5.55197 2.104 5.44998 2.5 5.44998C3.1 5.44998 3.616 5.64797 4.048 6.04397L9.322 2.98398C9.274 2.74397 9.25 2.56998 9.25 2.46198C9.25 2.06597 9.352 1.69398 9.556 1.34598C9.76 0.997973 10.036 0.721976 10.384 0.517975C10.732 0.313974 11.104 0.211975 11.5 0.211975C11.896 0.211975 12.268 0.313974 12.616 0.517975C12.964 0.721976 13.24 0.997973 13.444 1.34598C13.648 1.69398 13.75 2.06597 13.75 2.46198C13.75 2.85798 13.648 3.22997 13.444 3.57798C13.24 3.92598 12.964 4.20197 12.616 4.40597C12.268 4.60998 11.896 4.71198 11.5 4.71198C10.948 4.71198 10.432 4.50198 9.952 4.08197L4.678 7.17798C4.726 7.39398 4.75 7.56197 4.75 7.68197C4.75 7.80198 4.726 7.98197 4.678 8.22198L10.024 11.318C10.456 10.946 10.948 10.76 11.5 10.76Z" fill="#212121"/>
    </symbol>
    
    <symbol id="arrow-next" viewBox="0 0 13 13">
        <path fill-rule="evenodd" clip-rule="evenodd" d="M6.32397 0.424011L12.324 6.42401L6.32397 12.424L5.26409 11.3641L9.44972 7.16054H0.323975V5.68748H9.44972L5.26409 1.48389L6.32397 0.424011Z" fill="#212121"/>
    </symbol>
    
    <symbol id="flight" viewBox="0 0 21 22">
        <path fill-rule="evenodd" clip-rule="evenodd" d="M20.9159 15.3894L12.0841 12.6394L12.0841 18.6947L14.3053 20.3606V22L10.4447 20.9159L6.61058 22V20.3606L8.77885 18.6947L8.77885 12.6394L0 15.3894L0 13.2212L8.77885 7.69471L8.77885 1.63942C8.77885 1.18109 8.9375 0.793271 9.25481 0.475962C9.57212 0.158652 9.96875 0 10.4447 0C10.9207 0 11.3129 0.158652 11.6214 0.475962C11.9299 0.793271 12.0841 1.18109 12.0841 1.63942L12.0841 7.69471L20.9159 13.2212V15.3894Z" fill="white"/>
    </symbol>
    
    <symbol id="hotel" viewBox="0 0 22 15">
        <path fill-rule="evenodd" clip-rule="evenodd" d="M17.9739 1.96514C18.6928 1.96514 19.3598 2.14887 19.9749 2.51634C20.5901 2.88381 21.0813 3.37509 21.4488 3.9902C21.8163 4.6053 22 5.27233 22 5.99129V14.9782H19.9869V11.9826H2.01307V14.9782H0V0H2.01307V8.98693H10.0174V1.96514H17.9739ZM5.99129 7.95643C5.46405 7.95643 4.96877 7.82063 4.50545 7.54902C4.04212 7.27741 3.67466 6.90995 3.40305 6.44662C3.13144 5.98329 2.99564 5.48802 2.99564 4.96078C2.99564 4.43355 3.13144 3.93827 3.40305 3.47495C3.67466 3.01162 4.04212 2.64416 4.50545 2.37255C4.96877 2.10094 5.46405 1.96514 5.99129 1.96514C6.51852 1.96514 7.0138 2.10094 7.47712 2.37255C7.94045 2.64416 8.30791 3.01162 8.57952 3.47495C8.85113 3.93827 8.98693 4.43355 8.98693 4.96078C8.98693 5.48802 8.85113 5.98329 8.57952 6.44662C8.30791 6.90995 7.94045 7.27741 7.47712 7.54902C7.0138 7.82063 6.51852 7.95643 5.99129 7.95643Z" fill="white"/>
    </symbol>
    
    <symbol id="arrow_drop_down" viewBox="0 0 8 5" >
        <path fill-rule="evenodd" clip-rule="evenodd" d="M0.0739746 0.92395H7.92597L3.99997 4.84995L0.0739746 0.92395Z"/>
    </symbol>
    
    <symbol id="speak" viewBox="0 0 32 32" >
        <path d="M16 32C24.8366 32 32 24.8366 32 16C32 7.16344 24.8366 0 16 0C7.16344 0 0 7.16344 0 16C0 24.8366 7.16344 32 16 32Z" fill="#F8F8F8"/>
        <path fill-rule="evenodd" clip-rule="evenodd" d="M20.24 15.5H21.64C21.64 16.4333 21.4133 17.3133 20.96 18.14C20.52 18.9267 19.9167 19.5833 19.15 20.11C18.3833 20.6367 17.5467 20.96 16.64 21.08V23.82H15V21.08C14.0933 20.96 13.2567 20.6367 12.49 20.11C11.7233 19.5833 11.12 18.9267 10.68 18.14C10.2267 17.3133 10 16.4333 10 15.5H11.4C11.4 16.3133 11.6133 17.0467 12.04 17.7C12.44 18.3267 12.9767 18.82 13.65 19.18C14.3233 19.54 15.0467 19.72 15.82 19.72C16.5933 19.72 17.3167 19.54 17.99 19.18C18.6633 18.82 19.2 18.3267 19.6 17.7C20.0267 17.0467 20.24 16.3133 20.24 15.5ZM15.82 18C15.38 18 14.9667 17.8867 14.58 17.66C14.1933 17.4333 13.8867 17.1267 13.66 16.74C13.4333 16.3533 13.32 15.94 13.32 15.5V10.5C13.32 10.06 13.4333 9.64667 13.66 9.26C13.8867 8.87333 14.1933 8.56667 14.58 8.34C14.9667 8.11333 15.38 8 15.82 8C16.26 8 16.6733 8.11333 17.06 8.34C17.4467 8.56667 17.7533 8.87333 17.98 9.26C18.2067 9.64667 18.32 10.06 18.32 10.5V15.5C18.32 15.94 18.2067 16.3533 17.98 16.74C17.7533 17.1267 17.4467 17.4333 17.06 17.66C16.6733 17.8867 16.26 18 15.82 18Z" fill="black"/>
    </symbol>
    
    <symbol id="listen" viewBox="0 0 32 32">
        <path d="M16 32C24.8366 32 32 24.8366 32 16C32 7.16344 24.8366 0 16 0C7.16344 0 0 7.16344 0 16C0 24.8366 7.16344 32 16 32Z" fill="#F8F8F8"/>
        <path fill-rule="evenodd" clip-rule="evenodd" d="M17.68 8.70001C18.7867 8.94001 19.7833 9.41334 20.67 10.12C21.5567 10.8267 22.2467 11.68 22.74 12.68C23.2467 13.72 23.5 14.8267 23.5 16C23.5 17.1734 23.2467 18.28 22.74 19.32C22.2467 20.32 21.5567 21.1733 20.67 21.88C19.7833 22.5867 18.7867 23.06 17.68 23.3V21.58C18.48 21.3533 19.1933 20.9667 19.82 20.42C20.4467 19.8733 20.9367 19.2167 21.29 18.45C21.6433 17.6833 21.82 16.8667 21.82 16C21.82 15.1333 21.6433 14.3167 21.29 13.55C20.9367 12.7833 20.4467 12.1267 19.82 11.58C19.1933 11.0333 18.48 10.6467 17.68 10.42V8.70001ZM19.76 16C19.76 16.7333 19.5733 17.3967 19.2 17.99C18.8267 18.5833 18.32 19.04 17.68 19.36V12.64C18.32 12.96 18.8267 13.4167 19.2 14.01C19.5733 14.6033 19.76 15.2667 19.76 16ZM8.5 13.5H11.82L16 9.32001V22.68L11.82 18.5H8.5V13.5Z" fill="black"/>
    </symbol>
    
    <symbol id="changeactions" viewBox="0 0 32 32">
        <path d="M16 32C24.8366 32 32 24.8366 32 16C32 7.16344 24.8366 0 16 0C7.16344 0 0 7.16344 0 16C0 24.8366 7.16344 32 16 32Z" fill="#F8F8F8"/>
        <path fill-rule="evenodd" clip-rule="evenodd" d="M18.82 16.64L15.5 13.32L18.82 10V12.5H24.64V14.14H18.82V16.64ZM13.82 17.5V15L17.14 18.32L13.82 21.64V19.14H8V17.5H13.82Z" fill="black"/>
    </symbol>
    
    <symbol id="close" viewBox="0 0 16 16">
        <path fill-rule="evenodd" clip-rule="evenodd" d="M10.8797 12.2735L12.2735 10.8797L9.41786 8.02404L12.2735 5.16842L10.8797 3.7746L8.02405 6.63022L5.16842 3.7746L3.77461 5.16842L6.63023 8.02404L3.77461 10.8797L5.16842 12.2735L8.02405 9.41786L10.8797 12.2735Z"/>
    </symbol>
</svg>