<svg width="16" height="16" viewBox="0 0 16 16" fill="none" xmlns="http://www.w3.org/2000/svg">
<path fill-rule="evenodd" clip-rule="evenodd" d="M12.428 11.75C12.932 11.21 13.322 10.592 13.598 9.89598C13.874 9.19997 14.012 8.46798 14.012 7.69998C14.012 6.88397 13.853 6.10398 13.535 5.35997C13.217 4.61597 12.773 3.96498 12.203 3.40698C11.633 2.84897 10.982 2.42598 10.25 2.13798V2.46198C10.25 2.86998 10.1 3.21797 9.79996 3.50598C9.49996 3.79398 9.14596 3.93797 8.73796 3.93797H7.26196V5.44998C7.26196 5.65398 7.18696 5.82797 7.03696 5.97198C6.88696 6.11598 6.70396 6.18798 6.48796 6.18798H5.01196V7.69998H9.51196C9.71596 7.69998 9.88996 7.77197 10.034 7.91598C10.178 8.05998 10.25 8.23397 10.25 8.43797V10.688H10.988C11.312 10.688 11.606 10.787 11.87 10.985C12.134 11.183 12.32 11.438 12.428 11.75ZM7.26196 13.64V12.2C6.85396 12.2 6.49996 12.05 6.19996 11.75C5.89996 11.45 5.74996 11.096 5.74996 10.688V9.94998L2.16796 6.36798C2.04796 6.82398 1.98796 7.26797 1.98796 7.69998C1.98796 8.69598 2.22796 9.63797 2.70796 10.526C3.16397 11.366 3.79396 12.065 4.59796 12.623C5.40197 13.181 6.28996 13.52 7.26196 13.64ZM7.99996 0.211975C9.36797 0.211975 10.634 0.553972 11.798 1.23798C12.926 1.88598 13.814 2.77397 14.462 3.90198C15.146 5.06598 15.488 6.33197 15.488 7.69998C15.488 9.06798 15.146 10.334 14.462 11.498C13.814 12.626 12.926 13.514 11.798 14.162C10.634 14.846 9.36797 15.188 7.99996 15.188C6.63196 15.188 5.36597 14.846 4.20196 14.162C3.07396 13.502 2.18597 12.608 1.53796 11.48C0.85396 10.316 0.511963 9.05598 0.511963 7.69998C0.511963 6.34397 0.85396 5.08398 1.53796 3.91998C2.19797 2.79197 3.09196 1.89798 4.21996 1.23798C5.38397 0.553972 6.64396 0.211975 7.99996 0.211975Z" fill="#212121"/>
</svg>
